<svg width="22" height="22" viewBox="0 0 22 22" fill="none" xmlns="http://www.w3.org/2000/svg">
<path d="M2.19803 14.4643L2.8944 14.2429L2.19803 14.4643ZM1.13937 8.45481L1.84326 8.65099L1.13937 8.45481ZM5.56008 3.8893L5.12446 3.30263H5.12446L5.56008 3.8893ZM1.24737 8.11512L1.93531 8.36146L1.24737 8.11512ZM5.08054 20.172L4.66688 20.7743H4.66688L5.08054 20.172ZM4.7978 19.962L4.34085 20.5322L4.7978 19.962ZM19.802 14.4643L19.1056 14.2429L19.802 14.4643ZM17.2022 19.962L17.6592 20.5322L17.2022 19.962ZM16.9195 20.172L17.3331 20.7743L16.9195 20.172ZM16.4399 3.8893L16.8755 3.30263L16.4399 3.8893ZM20.7526 8.11512L20.0647 8.36146L20.7526 8.11512ZM20.8606 8.45481L20.1567 8.65099L20.8606 8.45481ZM11.1747 1.00327L11.1474 1.73348L11.1747 1.00327ZM10.8253 1.00327L10.8526 1.73348L10.8253 1.00327ZM9.09338 15.6822C8.68981 15.6822 8.36266 16.0093 8.36266 16.4129C8.36266 16.8164 8.68981 17.1436 9.09338 17.1436V15.6822ZM12.9066 17.1436C13.3102 17.1436 13.6373 16.8164 13.6373 16.4129C13.6373 16.0093 13.3102 15.6822 12.9066 15.6822V17.1436ZM2.8944 14.2429C2.40415 12.7009 2.05461 11.5983 1.87116 10.7029C1.69105 9.82391 1.68681 9.21231 1.84326 8.65099L0.435484 8.25863C0.193973 9.12517 0.233524 9.99111 0.43947 10.9963C0.642067 11.9851 1.02083 13.1733 1.50166 14.6857L2.8944 14.2429ZM5.12446 3.30263C3.86607 4.23703 2.87495 4.97171 2.14116 5.65108C1.39432 6.34252 0.862859 7.02142 0.559431 7.86878L1.93531 8.36146C2.13113 7.8146 2.48487 7.32446 3.134 6.72347C3.79618 6.11042 4.71179 5.42931 5.9957 4.47597L5.12446 3.30263ZM1.84326 8.65099C1.87047 8.55334 1.90118 8.45677 1.93531 8.36146L0.559431 7.86878C0.513458 7.99716 0.472116 8.1272 0.435484 8.25863L1.84326 8.65099ZM11 20.2693C9.41255 20.2693 8.28126 20.2683 7.39429 20.1702C6.52525 20.0741 5.96201 19.8909 5.4942 19.5696L4.66688 20.7743C5.40483 21.2811 6.23009 21.5118 7.23372 21.6228C8.21943 21.7317 9.44499 21.7307 11 21.7307V20.2693ZM1.50166 14.6857C1.98245 16.198 2.35945 17.3869 2.76435 18.3089C3.17577 19.2456 3.64295 19.973 4.34085 20.5322L5.25475 19.3918C4.80948 19.035 4.46232 18.5407 4.10241 17.7212C3.73599 16.8869 3.38468 15.785 2.8944 14.2429L1.50166 14.6857ZM5.4942 19.5696C5.41231 19.5134 5.33244 19.4541 5.25475 19.3918L4.34085 20.5322C4.44656 20.6169 4.55531 20.6977 4.66688 20.7743L5.4942 19.5696ZM19.1056 14.2429C18.6153 15.785 18.264 16.8869 17.8976 17.7212C17.5377 18.5407 17.1905 19.035 16.7452 19.3918L17.6592 20.5322C18.357 19.973 18.8242 19.2456 19.2357 18.3089C19.6406 17.3869 20.0175 16.198 20.4983 14.6857L19.1056 14.2429ZM11 21.7307C12.555 21.7307 13.7806 21.7317 14.7663 21.6228C15.7699 21.5118 16.5952 21.2811 17.3331 20.7743L16.5058 19.5696C16.038 19.8909 15.4748 20.0741 14.6057 20.1702C13.7187 20.2683 12.5875 20.2693 11 20.2693V21.7307ZM16.7452 19.3918C16.6676 19.4541 16.5877 19.5134 16.5058 19.5696L17.3331 20.7743C17.4447 20.6977 17.5534 20.6169 17.6592 20.5322L16.7452 19.3918ZM16.0043 4.47597C17.2882 5.42931 18.2038 6.11042 18.866 6.72347C19.5151 7.32446 19.8689 7.8146 20.0647 8.36146L21.4406 7.86878C21.1371 7.02142 20.6057 6.34252 19.8588 5.65108C19.125 4.97171 18.1339 4.23703 16.8755 3.30263L16.0043 4.47597ZM20.4983 14.6857C20.9792 13.1733 21.3579 11.9851 21.5605 10.9963C21.7665 9.99111 21.806 9.12517 21.5645 8.25863L20.1567 8.65099C20.3132 9.21231 20.3089 9.82391 20.1288 10.7029C19.9454 11.5983 19.5959 12.7009 19.1056 14.2429L20.4983 14.6857ZM20.0647 8.36146C20.0988 8.45676 20.1295 8.55334 20.1567 8.65099L21.5645 8.25863C21.5279 8.1272 21.4865 7.99716 21.4406 7.86878L20.0647 8.36146ZM16.8755 3.30263C15.6173 2.36835 14.6271 1.63187 13.7678 1.12834C12.8937 0.616201 12.0932 0.306481 11.2021 0.273073L11.1474 1.73348C11.708 1.7545 12.2689 1.94392 13.0289 2.38926C13.8037 2.8432 14.7202 3.52252 16.0043 4.47597L16.8755 3.30263ZM5.9957 4.47597C7.27976 3.52252 8.19633 2.8432 8.97105 2.38926C9.73109 1.94392 10.292 1.7545 10.8526 1.73348L10.7979 0.273073C9.90681 0.306481 9.10628 0.616201 8.23223 1.12834C7.37287 1.63187 6.38271 2.36835 5.12446 3.30263L5.9957 4.47597ZM11.2021 0.273073C11.0674 0.268023 10.9326 0.268023 10.7979 0.273073L10.8526 1.73348C10.9508 1.72979 11.0492 1.72979 11.1474 1.73348L11.2021 0.273073ZM9.09338 17.1436H12.9066V15.6822H9.09338V17.1436Z" fill="white"/>
</svg>
